HIERARCHY
ROOT Hips
{
  OFFSET -32.5998 29.0326 120.673
  CHANNELS 6 Xposition Yposition Zposition Zrotation Xrotation Yrotation
  JOINT LeftUpLeg
  {
    OFFSET 8.64259 1.95398 -2.38835
    CHANNELS 3 Zrotation Xrotation Yrotation
    JOINT LeftLeg
    {
      OFFSET 43.7702 0 0
      CHANNELS 3 Zrotation Xrotation Yrotation
      JOINT LeftFoot
      {
        OFFSET 40.6238 0 0
        CHANNELS 3 Zrotation Xrotation Yrotation
        JOINT LeftToeBase
        {
          OFFSET 12.7242 0 0
          CHANNELS 3 Zrotation Xrotation Yrotation
          End Site
          {
            OFFSET 0 0 0
          }
        }
      }
    }
  }
  JOINT RightUpLeg
  {
    OFFSET -8.2249 1.95398 -2.59336
    CHANNELS 3 Zrotation Xrotation Yrotation
    JOINT RightLeg
    {
      OFFSET 43.5653 0 0
      CHANNELS 3 Zrotation Xrotation Yrotation
      JOINT RightFoot
      {
        OFFSET 40.6238 0 0
        CHANNELS 3 Zrotation Xrotation Yrotation
        JOINT RightToeBase
        {
          OFFSET 12.7242 0 0
          CHANNELS 3 Zrotation Xrotation Yrotation
          End Site
          {
            OFFSET 0 0 0
          }
        }
      }
    }
  }
  JOINT Spine
  {
    OFFSET 0.165834 0.87714 6.61349
    CHANNELS 3 Zrotation Xrotation Yrotation
    JOINT Spine1
    {
      OFFSET 7.38963 1.71661e-005 0
      CHANNELS 3 Zrotation Xrotation Yrotation
      JOINT Spine2
      {
        OFFSET 11.9445 1.14441e-005 0
        CHANNELS 3 Zrotation Xrotation Yrotation
        JOINT Spine3
        {
          OFFSET 14.7254 4.19617e-005 0
          CHANNELS 3 Zrotation Xrotation Yrotation
          JOINT Spine4
          {
            OFFSET 10.9679 0 0
            CHANNELS 3 Zrotation Xrotation Yrotation
            JOINT RightShoulder
            {
              OFFSET 2.46616 -1.6653 3.69651
              CHANNELS 3 Zrotation Xrotation Yrotation
              JOINT RightArm
              {
                OFFSET 13.0012 0 0
                CHANNELS 3 Zrotation Xrotation Yrotation
                JOINT RightForeArm
                {
                  OFFSET 28.7848 1.62311e-005 0
                  CHANNELS 3 Zrotation Xrotation Yrotation
                  JOINT RightHand
                  {
                    OFFSET 26.5688 1.62095e-005 0
                    CHANNELS 3 Zrotation Xrotation Yrotation
                    End Site
                    {
                      OFFSET 0 0 0
                    }
                  }
                }
              }
            }
            JOINT LeftShoulder
            {
              OFFSET 2.38034 -1.29275 -3.7523
              CHANNELS 3 Zrotation Xrotation Yrotation
              JOINT LeftArm
              {
                OFFSET 16.3182 6.07031e-005 0
                CHANNELS 3 Zrotation Xrotation Yrotation
                JOINT LeftForeArm
                {
                  OFFSET 27.0901 0 0
                  CHANNELS 3 Zrotation Xrotation Yrotation
                  JOINT LeftHand
                  {
                    OFFSET 24.5451 1.51738e-005 0
                    CHANNELS 3 Zrotation Xrotation Yrotation
                    End Site
                    {
                      OFFSET 0 0 0
                    }
                  }
                }
              }
            }
            JOINT Neck
            {
              OFFSET 5.0226 -0.0266342 0
              CHANNELS 3 Zrotation Xrotation Yrotation
              JOINT Head
              {
                OFFSET 6.69364 2.86102e-005 0
                CHANNELS 3 Zrotation Xrotation Yrotation
                End Site
                {
                  OFFSET 0 0 0
                }
              }
            }
          }
        }
      }
    }
  }
}
MOTION
Frames:	14
Frame Time:	0.0416667
108.273 26.0525 117.579 -24.1557 -13.7629 -99.6863 -126.537 58.6812 93.3586 -111.598 4.9361 2.30915 68.2181 0.589009 5.3978 -1.99408 -16.1038 2.14019 136.702 14.1594 57.9915 -41.8295 -23.3729 13.6463 47.5986 7.22938 4.94844 31.7357 -1.99625 3.1639 -1.41702 8.92422 -87.42 9.0359 -1.67506 5.22488 -2.64474 -1.4438 5.29326 -25.1227 -3.16643 4.48236 -5.11003 -3.16644 4.48234 94.8 -9.98562 -104.168 45.7058 47.2505 -42.7121 -42.4917 35.8369 -139.591 5.91418 0.877665 10.6692 -87.4522 -32.8377 78.9497 -9.42909 -41.9573 -45.542 35.7124 -27.4294 -128.768 -3.37396 -0.256185 14.4162 42.367 -2.11743 -5.1919 -6.512 0.752359 -2.38678 
107.468 25.3499 117.182 -24.9728 -12.9828 -101.363 -129.836 55.6975 97.3155 -110.106 8.27104 1.38733 67.7842 0.879391 5.57078 -2.2934 -16.5084 2.42378 135.789 13.7423 56.4684 -41.8687 -12.6963 13.1617 48.9602 6.42003 4.21853 30.1373 -1.24982 2.77817 -1.51584 8.76881 -87.7199 9.35798 -1.99862 4.6659 -2.32006 -1.79154 4.74909 -24.8186 -3.30761 3.85135 -4.80589 -3.3076 3.85133 95.3946 -8.95961 -102.937 40.7123 33.4745 -44.1417 -49.5735 39.6322 -131.954 8.86354 1.14734 8.94636 -84.9123 -21.612 81.113 -23.0226 -55.7854 -56.6826 36.586 -17.5161 -125.501 -6.7567 -0.75499 12.6311 40.8036 0.97807 0.28525 -5.3305 0.843218 -2.72238 
107.036 24.7976 116.64 -24.3118 -11.0594 -100.584 -127.873 56.2433 98.9168 -109.411 7.10034 0.885583 67.0364 0.629509 5.83813 -2.59082 -15.8957 1.47417 137.398 13.0725 57.7214 -42.0681 -11.9493 13.1614 50.4829 5.78705 3.62488 28.4674 -0.700337 3.4136 -1.45397 8.44173 -88.3465 10.0104 -2.14585 3.4585 -1.66369 -1.99164 3.54945 -24.1889 -3.08572 2.65433 -4.17627 -3.08572 2.65431 95.585 -8.59644 -102.546 35.1427 24.2694 -47.3195 -52.9173 38.0438 -126.165 8.47724 1.00132 7.84444 -81.9705 -5.12159 83.3762 -38.6401 -59.7167 -76.2277 39.5979 -6.80365 -115.899 -11.0576 -1.06153 8.11402 37.9906 5.09772 4.89926 -4.2252 2.52048 -3.19604 
107.189 25.1649 115.93 -19.0771 -7.80043 -97.8181 -120.492 60.9121 94.8946 -109.285 7.68829 0.336242 66.4092 0.662776 6.11137 -1.3607 -16.0235 2.48964 141.135 16.1422 63.692 -45.4948 -7.88023 13.4122 53.8774 4.05949 2.1763 28.466 -0.945871 4.42014 -1.13732 7.82802 -89.0676 11.2327 -1.82977 2.03769 -0.438609 -1.73833 2.11623 -22.9773 -2.35751 1.39357 -2.96466 -2.35752 1.39357 95.7217 -8.60205 -102.127 29.5769 17.1232 -50.9468 -58.1909 38.4314 -120.184 10.3079 1.10147 6.62475 -80.5316 4.15299 84.8664 -40.7086 -56.3368 -85.1712 42.5391 2.86439 -102.398 -16.3862 -0.585965 -0.0738256 37.9282 7.8053 8.4584 -4.58334 3.44244 -3.79985 
107.7 26.1044 115.207 -12.5978 -3.50337 -93.4154 -106.366 68.3528 84.5911 -109.628 4.39901 0.0845154 65.2166 -0.143349 4.60998 -2.39741 -16.3962 2.21137 145.47 19.0767 72.9124 -48.4402 -0.232337 14.0053 61.9069 -0.758871 -0.0392152 29.079 -1.2042 4.46986 -0.637115 7.18804 -89.7851 12.501 -1.16343 0.563492 0.830445 -1.13751 0.614148 -21.7087 -1.27898 0.187719 -1.69605 -1.279 0.18773 95.6767 -9.5459 -101.808 24.6233 10.8388 -53.8077 -64.3369 39.529 -114.083 14.0028 1.16912 4.21706 -79.7281 8.76254 87.0619 -40.2154 -51.8056 -89.6897 45.067 6.55793 -94.5134 -14.3162 0.0243023 -5.46746 38.742 9.66284 10.2654 -5.59671 4.3204 -4.61103 
107.31 26.3411 115.464 -11.9242 -1.69981 -95.0471 -104.572 65.6941 84.366 -108.467 3.68872 -0.946513 65.4593 0.0879577 4.13385 -3.54512 -16.2527 1.24255 145.393 21.0809 73.3203 -50.3648 4.00534 13.8047 68.8823 -5.54621 -1.19347 29.355 -1.18589 3.91358 -0.609622 7.1673 -89.8138 12.5422 -1.12228 0.502089 0.871626 -1.09909 0.550987 -21.6673 -1.2213 0.141541 -1.65464 -1.22129 0.141544 95.2371 -10.7324 -102.532 20.2292 7.94963 -56.0041 -67.5583 39.8442 -110.721 16.8855 1.22322 3.05648 -79.4312 10.4797 87.7983 -40.8918 -52.2226 -89.542 43.2328 7.71797 -92.8996 -15.0918 -0.220523 -3.19651 39.1029 10.2181 10.4196 -5.48024 4.72843 -4.35069 
106.654 25.9043 115.617 -11.4568 -0.297854 -96.1783 -104.269 63.3691 85.9446 -107.366 3.82399 -1.8884 65.6677 0.351228 4.0786 -2.52055 -16.8187 2.62957 145.454 21.6255 73.4997 -50.429 8.21799 14.4921 71.1418 -6.9954 -1.83858 28.9301 -1.05058 4.05667 -0.657769 7.19867 -89.8202 12.4796 -1.22131 0.499445 0.809138 -1.19813 0.552715 -21.7305 -1.31493 0.109241 -1.7179 -1.31494 0.109252 95.086 -11.5363 -102.583 17.7049 5.30246 -58.2056 -70.5313 41.3304 -108.496 18.6288 1.09203 1.47868 -79.1285 10.8586 89.3348 -43.5544 -53.5611 -89.8974 41.5561 7.03454 -95.0369 -12.8724 -0.353704 -1.48155 41.5664 10.5608 8.63719 -6.201 5.68644 -3.35147 
105.629 24.9277 115.839 -10.9286 0.778245 -96.8493 -105.916 60.7307 89.5239 -105.939 5.35722 -2.9812 65.8833 0.621938 3.31458 3.18283 -15.8187 5.62518 145.784 21.0952 73.3422 -49.2536 11.1626 15.1414 74.6932 -9.34942 -1.84279 28.3261 -0.879484 4.3838 -0.827234 7.14577 -89.8866 12.5865 -1.5892 0.41187 0.916393 -1.56953 0.481431 -21.6265 -1.63949 -0.0849001 -1.6139 -1.63947 -0.0849144 94.5665 -11.8769 -103.881 15.4363 2.50163 -60.0968 -76.8855 43.11 -103.644 22.4665 1.16108 0.722941 -78.9864 10.6444 90.062 -49.5364 -53.9579 -88.9162 41.0147 5.00115 -100.95 -12.4578 -0.544057 0.690087 43.0596 11.4161 7.8587 -6.43701 6.77747 -3.7224 
104.545 24.785 116.293 -9.22422 2.4378 -97.4639 -110.07 57.9625 93.8786 -103.227 7.00966 -4.43512 63.4516 -1.44043 -1.54581 13.3335 -11.9041 8.51197 147.493 21.6157 74.5509 -47.7663 14.1497 14.6551 80.8564 -13.5836 -1.28527 28.3571 -0.71696 3.66557 -0.84962 7.00187 -89.9763 12.8733 -1.67555 0.249134 1.20342 -1.66299 0.322643 -21.3403 -1.67296 -0.266102 -1.32767 -1.67295 -0.266111 93.1008 -14.0694 -106.753 10.7456 1.41979 -59.5573 -72.9627 43.3187 -105.655 18.7982 1.47899 3.69887 -79.0238 10.0387 90.0716 -47.8607 -58.7664 -80.9281 38.3964 1.71051 -107.742 -12.015 -0.667925 2.46775 44.1371 12.5379 8.16556 -6.99577 7.64487 -4.90318 
102.992 25.8634 117.624 -7.33787 4.06535 -98.9349 -118.081 53.4961 98.4886 -96.9807 17.6907 -7.6106 60.8909 -2.13287 -3.5856 20.1356 -9.03117 10.2078 149.443 25.7719 74.4003 -47.4144 14.3668 13.6833 75.9609 -9.89973 -1.35315 25.847 0.397456 3.38471 -0.719542 6.90858 -90.0235 13.0584 -1.43954 0.130339 1.38821 -1.43242 0.193579 -21.1532 -1.41215 -0.308408 -1.14052 -1.41216 -0.308424 91.7361 -16.995 -108.71 6.4285 -0.0833063 -58.2722 -70.5323 44.6459 -107.111 17.0581 1.39145 4.0839 -79.5184 9.62623 87.7001 -46.1678 -65.0331 -74.0902 34.8457 0.445813 -112.953 -8.48189 -0.629919 5.61441 44.9143 13.0357 8.21362 -7.29419 7.98905 -3.88913 
100.834 27.7845 120.255 -5.23109 5.15356 -100.464 -122.403 49.1608 97.4561 -89.2799 23.27 -10.8141 58.0902 -3.12888 -5.01511 22.7024 -8.56051 12.089 147.628 37.3844 71.4117 -54.5797 10.3355 14.5145 62.6517 0.550581 0.983625 22.3904 2.1274 2.53824 -0.318153 7.00443 -90.331 12.8639 -0.790406 -0.569521 1.19311 -0.814711 -0.534174 -21.3421 -0.582692 -0.780737 -1.3294 -0.582709 -0.780738 93.6714 -15.725 -104.419 4.68747 -2.16481 -60.0591 -68.8354 45.4092 -107.447 21.1407 1.32438 1.91169 -79.9396 8.19683 86.4432 -59.2066 -68.0329 -79.4973 33.8966 -1.63246 -119.721 -9.15538 -0.665332 5.27532 46.9501 14.0119 10.367 -8.58306 7.51329 -2.63491 
98.6283 29.6873 122.841 -3.38491 6.7029 -100.123 -125.398 47.1493 96.4604 -82.7586 24.8444 -13.4549 55.4982 -4.23207 -6.54129 25.6067 -7.43979 13.1608 143.669 52.1729 71.5755 -67.882 -0.594572 11.9994 60.1981 2.56207 0.91469 17.7241 3.72574 3.82845 -0.0177944 7.13591 -90.8354 12.5975 -0.433722 -1.61777 0.925659 -0.504491 -1.59713 -21.6016 0.0724814 -1.67331 -1.58894 0.0724695 -1.67333 94.2747 -14.4546 -103.468 3.02354 -0.864777 -60.3365 -64.4421 45.5981 -110.693 20.839 1.20407 1.4 -80.354 4.48116 86.2132 -67.9179 -71.0358 -85.4611 30.5887 -1.37027 -123.518 -7.32897 -0.62284 7.96573 47.5409 15.4758 13.4149 -8.42507 7.1414 -3.05981 
96.4888 30.5939 124.747 -3.72501 7.82518 -98.3497 -130.205 45.3411 99.3303 -76.4268 27.6477 -15.2804 53.2005 -4.98466 -7.89469 28.1696 -5.94116 13.1237 138.195 64.7866 76.1054 -84.6026 -8.181 6.36199 64.3183 -0.040469 -0.839931 17.7441 3.87481 3.39235 -0.198262 7.35006 -91.0695 12.1612 -0.90009 -2.03467 0.489094 -0.988773 -1.9931 -22.0337 -0.247156 -2.21104 -2.02101 -0.247145 -2.21104 90.8597 -19.1965 -109.684 -3.47435 -0.263191 -57.4026 -64.8063 47.3515 -110.449 21.0649 0.884586 -0.329854 -80.4607 -1.20137 87.4853 -58.8124 -76.9707 -82.1248 24.3574 0.88284 -125.672 -3.10888 -0.173819 8.53602 49.011 17.3586 13.9568 -9.10445 8.62654 -6.4237 
94.492 30.4127 125.519 -6.20988 8.81994 -95.1265 -133.271 43.5356 104.275 -73.4088 27.7573 -15.6187 52.518 -5.07012 -7.98295 28.0738 -5.91486 12.9395 130.93 73.9212 84.0217 -99.3364 -7.80152 1.37615 62.7859 1.32496 -1.08739 14.4083 4.36577 5.88915 -0.900394 6.91546 -92.3172 12.9573 -2.89954 -4.29272 1.28298 -3.08548 -4.16118 -21.204 -1.47719 -4.96411 -1.19132 -1.47718 -4.96412 82.1605 -11.5411 -136.413 -5.8157 -6.29714 -35.536 -66.2758 47.7194 -109.01 17.5118 0.625719 -1.0708 -82.6671 -35.2562 89.4389 29.4597 -77.4929 -20.5476 20.3476 -0.128075 -124.561 -1.7402 0.00626971 13.5748 20.9305 23.7042 55.7018 9.08659 1.34863 -36.1811 
